<svg id="visual" viewBox="0 0 900 600" width="900" height="600" xmlns="http://www.w3.org/2000/svg" xmlns:xlink="http://www.w3.org/1999/xlink" version="1.1"><rect x="0" y="0" width="900" height="600" fill="#ffffff"></rect><path d="M0 161L7.5 160.3C15 159.7 30 158.3 45 167.3C60 176.3 75 195.7 90 207.2C105 218.7 120 222.3 135 214.2C150 206 165 186 180 184.8C195 183.7 210 201.3 225 203.7C240 206 255 193 270 191.5C285 190 300 200 315 205C330 210 345 210 360 206C375 202 390 194 405 184.2C420 174.3 435 162.7 450 170.5C465 178.3 480 205.7 495 214.2C510 222.7 525 212.3 540 203.2C555 194 570 186 585 185.5C600 185 615 192 630 200.2C645 208.3 660 217.7 675 220.3C690 223 705 219 720 215.2C735 211.3 750 207.7 765 205.7C780 203.7 795 203.3 810 201C825 198.7 840 194.3 855 198C870 201.7 885 213.3 892.5 219.2L900 225L900 0L892.5 0C885 0 870 0 855 0C840 0 825 0 810 0C795 0 780 0 765 0C750 0 735 0 720 0C705 0 690 0 675 0C660 0 645 0 630 0C615 0 600 0 585 0C570 0 555 0 540 0C525 0 510 0 495 0C480 0 465 0 450 0C435 0 420 0 405 0C390 0 375 0 360 0C345 0 330 0 315 0C300 0 285 0 270 0C255 0 240 0 225 0C210 0 195 0 180 0C165 0 150 0 135 0C120 0 105 0 90 0C75 0 60 0 45 0C30 0 15 0 7.5 0L0 0Z" fill="#1597e5"></path><path d="M0 195L7.5 185.3C15 175.7 30 156.3 45 156.2C60 156 75 175 90 172.2C105 169.3 120 144.7 135 144.5C150 144.3 165 168.7 180 173.5C195 178.3 210 163.7 225 157.5C240 151.3 255 153.7 270 153C285 152.3 300 148.7 315 144C330 139.3 345 133.7 360 132.5C375 131.3 390 134.7 405 133.3C420 132 435 126 450 127.2C465 128.3 480 136.7 495 149.3C510 162 525 179 540 182.2C555 185.3 570 174.7 585 163.7C600 152.7 615 141.3 630 139.2C645 137 660 144 675 152.5C690 161 705 171 720 174.5C735 178 750 175 765 178C780 181 795 190 810 184.2C825 178.3 840 157.7 855 153.7C870 149.7 885 162.3 892.5 168.7L900 175L900 0L892.5 0C885 0 870 0 855 0C840 0 825 0 810 0C795 0 780 0 765 0C750 0 735 0 720 0C705 0 690 0 675 0C660 0 645 0 630 0C615 0 600 0 585 0C570 0 555 0 540 0C525 0 510 0 495 0C480 0 465 0 450 0C435 0 420 0 405 0C390 0 375 0 360 0C345 0 330 0 315 0C300 0 285 0 270 0C255 0 240 0 225 0C210 0 195 0 180 0C165 0 150 0 135 0C120 0 105 0 90 0C75 0 60 0 45 0C30 0 15 0 7.5 0L0 0Z" fill="#58aae7"></path><path d="M0 99L7.5 98C15 97 30 95 45 97C60 99 75 105 90 108.5C105 112 120 113 135 110.3C150 107.7 165 101.3 180 108.5C195 115.7 210 136.3 225 135.3C240 134.3 255 111.7 270 102.2C285 92.7 300 96.3 315 103.7C330 111 345 122 360 126.2C375 130.3 390 127.7 405 126.2C420 124.7 435 124.3 450 129.8C465 135.3 480 146.7 495 152.8C510 159 525 160 540 154.8C555 149.7 570 138.3 585 137.3C600 136.3 615 145.7 630 145.7C645 145.7 660 136.3 675 132C690 127.7 705 128.3 720 123.8C735 119.3 750 109.7 765 104.5C780 99.3 795 98.7 810 106C825 113.3 840 128.7 855 132.8C870 137 885 130 892.5 126.5L900 123L900 0L892.5 0C885 0 870 0 855 0C840 0 825 0 810 0C795 0 780 0 765 0C750 0 735 0 720 0C705 0 690 0 675 0C660 0 645 0 630 0C615 0 600 0 585 0C570 0 555 0 540 0C525 0 510 0 495 0C480 0 465 0 450 0C435 0 420 0 405 0C390 0 375 0 360 0C345 0 330 0 315 0C300 0 285 0 270 0C255 0 240 0 225 0C210 0 195 0 180 0C165 0 150 0 135 0C120 0 105 0 90 0C75 0 60 0 45 0C30 0 15 0 7.5 0L0 0Z" fill="#82bde9"></path><path d="M0 61L7.5 62C15 63 30 65 45 73C60 81 75 95 90 100.8C105 106.7 120 104.3 135 100.3C150 96.3 165 90.7 180 84.5C195 78.3 210 71.7 225 71.3C240 71 255 77 270 76.3C285 75.7 300 68.3 315 74C330 79.7 345 98.3 360 103.7C375 109 390 101 405 95.2C420 89.3 435 85.7 450 88.5C465 91.3 480 100.7 495 102.3C510 104 525 98 540 96.8C555 95.7 570 99.3 585 97.2C600 95 615 87 630 80.7C645 74.3 660 69.7 675 65.8C690 62 705 59 720 62.8C735 66.7 750 77.3 765 86.2C780 95 795 102 810 100.5C825 99 840 89 855 84.2C870 79.3 885 79.7 892.5 79.8L900 80L900 0L892.5 0C885 0 870 0 855 0C840 0 825 0 810 0C795 0 780 0 765 0C750 0 735 0 720 0C705 0 690 0 675 0C660 0 645 0 630 0C615 0 600 0 585 0C570 0 555 0 540 0C525 0 510 0 495 0C480 0 465 0 450 0C435 0 420 0 405 0C390 0 375 0 360 0C345 0 330 0 315 0C300 0 285 0 270 0C255 0 240 0 225 0C210 0 195 0 180 0C165 0 150 0 135 0C120 0 105 0 90 0C75 0 60 0 45 0C30 0 15 0 7.5 0L0 0Z" fill="#a9d0eb"></path><path d="M0 47L7.5 45.8C15 44.7 30 42.3 45 38.8C60 35.3 75 30.7 90 28.8C105 27 120 28 135 34.5C150 41 165 53 180 54.7C195 56.3 210 47.7 225 46C240 44.3 255 49.7 270 49.7C285 49.7 300 44.3 315 43.2C330 42 345 45 360 42.8C375 40.7 390 33.3 405 32.8C420 32.3 435 38.7 450 40.2C465 41.7 480 38.3 495 37.7C510 37 525 39 540 44.5C555 50 570 59 585 61.3C600 63.7 615 59.3 630 58.3C645 57.3 660 59.7 675 57.3C690 55 705 48 720 44.5C735 41 750 41 765 43C780 45 795 49 810 49.5C825 50 840 47 855 45.8C870 44.7 885 45.3 892.5 45.7L900 46L900 0L892.5 0C885 0 870 0 855 0C840 0 825 0 810 0C795 0 780 0 765 0C750 0 735 0 720 0C705 0 690 0 675 0C660 0 645 0 630 0C615 0 600 0 585 0C570 0 555 0 540 0C525 0 510 0 495 0C480 0 465 0 450 0C435 0 420 0 405 0C390 0 375 0 360 0C345 0 330 0 315 0C300 0 285 0 270 0C255 0 240 0 225 0C210 0 195 0 180 0C165 0 150 0 135 0C120 0 105 0 90 0C75 0 60 0 45 0C30 0 15 0 7.5 0L0 0Z" fill="#cfe2ee"></path></svg>